<svg xmlns="http://www.w3.org/2000/svg" viewBox="0 0 480 360" width="480" height="360" fill="none" role="img" aria-labelledby="ttl">
  <title id="ttl">الحماية وكلمة المرور</title>

  <defs>
    <linearGradient id="gClay" x1="0" y1="0" x2="1" y2="1">
      <stop offset="0" stop-color="#7C9AFB"/><stop offset="1" stop-color="#2F4FD8"/>
    </linearGradient>
    <linearGradient id="gClayDeep" x1="0" y1="0" x2="1" y2="1">
      <stop offset="0" stop-color="#3B58AE"/><stop offset="1" stop-color="#1B2E6B"/>
    </linearGradient>
    <linearGradient id="gPowder" x1="0" y1="0" x2="0.6" y2="1">
      <stop offset="0" stop-color="#F2F6FE"/><stop offset="1" stop-color="#C7D8FB"/>
    </linearGradient>
    <linearGradient id="gScreen" x1="0" y1="0" x2="0.7" y2="1">
      <stop offset="0" stop-color="#E8F0FF"/><stop offset="1" stop-color="#B7CDFA"/>
    </linearGradient>
    <linearGradient id="gWhite" x1="0" y1="0" x2="0.5" y2="1">
      <stop offset="0" stop-color="#FFFFFF"/><stop offset="1" stop-color="#E9F0FE"/>
    </linearGradient>
    <linearGradient id="gAccent" x1="0" y1="0" x2="1" y2="1">
      <stop offset="0" stop-color="#A8C0FF"/><stop offset="1" stop-color="#5B7BF0"/>
    </linearGradient>
    <radialGradient id="gGlow" cx="0.5" cy="0.5" r="0.5">
      <stop offset="0" stop-color="#8FAEFF" stop-opacity="0.45"/>
      <stop offset="1" stop-color="#8FAEFF" stop-opacity="0"/>
    </radialGradient>
    <radialGradient id="gShadow" cx="0.5" cy="0.5" r="0.5">
      <stop offset="0" stop-color="#1B2E6B" stop-opacity="0.20"/>
      <stop offset="1" stop-color="#1B2E6B" stop-opacity="0"/>
    </radialGradient>
    <filter id="fSoft" x="-30%" y="-30%" width="160%" height="160%">
      <feGaussianBlur stdDeviation="9"/>
    </filter>
    <filter id="fTiny" x="-40%" y="-40%" width="180%" height="180%">
      <feGaussianBlur stdDeviation="3.5"/>
    </filter>
  </defs>
  <g id="scene" data-layer="scene">
<g id="abstract-shapes" data-layer="abstract-shapes"><circle cx="240" cy="150" r="128" fill="url(#gGlow)"/>
     <rect x="52" y="188" width="34" height="34" rx="12" fill="#C7D8FB" opacity=".5"/>
     <circle cx="418" cy="112" r="18" fill="#7E9BF6" opacity=".34"/></g>
  <g id="shadow" data-layer="shadow"><ellipse cx="240" cy="300" rx="100" ry="22" fill="url(#gShadow)"/></g>
  
  <g id="shield" data-layer="shield">
    <path d="M181.5 92 q58.5 -20 117 0 v60.48 q0 63.36 -58.5 83.52 q-58.5 -20.160000000000004 -58.5 -83.52 z" fill="url(#gClay)"/>
    <path d="M190.5 98 q29.25 -14 58.5 -4 v72 q-29.25 8 -58.5 -6 z" fill="#FFFFFF" opacity="0.24"/>
  </g>
  <g id="lock" data-layer="lock">
    <rect x="216" y="146" width="48" height="40" rx="12" fill="#FFFFFF" opacity=".94"/>
    <path d="M228 146 v-12 a12 12 0 0 1 24 0 v12" fill="none" stroke="#FFFFFF" stroke-width="7" stroke-linecap="round"/>
    <circle cx="240" cy="164" r="6" fill="#2F4FD8"/>
  </g>
  <g id="otp-dots" data-layer="otp-dots"><rect x="184" y="239" width="22" height="30" rx="9"
      fill="url(#gAccent)" stroke="#C7D8FB" stroke-width="2"/><circle cx="195" cy="254" r="4" fill="#FFFFFF" opacity=".9"/><rect x="214" y="239" width="22" height="30" rx="9"
      fill="url(#gAccent)" stroke="#C7D8FB" stroke-width="2"/><circle cx="225" cy="254" r="4" fill="#FFFFFF" opacity=".9"/><rect x="244" y="239" width="22" height="30" rx="9"
      fill="url(#gAccent)" stroke="#C7D8FB" stroke-width="2"/><circle cx="255" cy="254" r="4" fill="#FFFFFF" opacity=".9"/><rect x="274" y="239" width="22" height="30" rx="9"
      fill="url(#gAccent)" stroke="#C7D8FB" stroke-width="2"/><circle cx="285" cy="254" r="4" fill="#FFFFFF" opacity=".9"/></g>
  </g>
</svg>
